<svg xmlns="http://www.w3.org/2000/svg" xmlns:xlink="http://www.w3.org/1999/xlink" viewBox="0 0 503.5 106.71"><defs><style>.cls-1{fill:#fff;}.cls-2{fill:url(#linear-gradient);}</style><linearGradient id="linear-gradient" x1="384.71" y1="104.73" x2="465" y2="9.05" gradientUnits="userSpaceOnUse"><stop offset="0" stop-color="#9a00f0"/><stop offset="1" stop-color="#ff3fbf"/></linearGradient></defs><title>StarMeUP_light</title><g id="Layer_2" data-name="Layer 2"><g id="Layer_1-2" data-name="Layer 1"><path class="cls-1" d="M33.1,60.71C18.24,57.09,13.23,53.87,13.23,48c0-7.36,6.83-12.92,15.88-12.92,7.54,0,15.06,3.31,21.18,9.32a1.54,1.54,0,0,0,1.19.45,1.58,1.58,0,0,0,1.13-.59L57,38.74a1.56,1.56,0,0,0-.17-2.13C48.67,29.2,39.46,25.45,29.44,25.45,14.34,25.45,3,35.36,3,48.52s10.36,18.4,25.91,22c14.74,3.4,20,7,20,13.72,0,7.48-7.12,12.7-17.31,12.7C22.27,97,14,93.45,7.06,86.48A1.51,1.51,0,0,0,5.87,86a1.55,1.55,0,0,0-1.14.59L.34,92.09a1.58,1.58,0,0,0,.13,2.1A43,43,0,0,0,31.3,106.6c16.63,0,27.8-9.23,27.8-23C59.1,68.8,46,63.72,33.1,60.71Z"/><path class="cls-1" d="M96,95.58a1.6,1.6,0,0,0-1.12-.67,1.62,1.62,0,0,0-1.24.41,8.23,8.23,0,0,1-5.51,2c-3,0-5.24-2.86-5.24-6.66V54.92H95.6a1.58,1.58,0,0,0,1.57-1.57V47.09a1.57,1.57,0,0,0-1.57-1.56H82.9v-14a1.57,1.57,0,0,0-1.57-1.57h-6.8A1.57,1.57,0,0,0,73,31.51v14H65.31a1.57,1.57,0,0,0-1.57,1.56v6.26a1.58,1.58,0,0,0,1.57,1.57H73V90.66c0,9.3,6.2,16,14.74,16a19,19,0,0,0,11.49-3.95,1.57,1.57,0,0,0,.33-2.14Z"/><path class="cls-1" d="M130.38,44.21c-4.61,0-12,1-20.82,5.67a1.57,1.57,0,0,0-.67,2.07l2.74,5.6a1.57,1.57,0,0,0,.94.81,1.6,1.6,0,0,0,1.23-.13c5.74-3.17,11.28-4.85,16-4.85,13,0,14.89,9.95,14.89,15.88v.17a63,63,0,0,0-17.41-2.84c-14,0-24.07,8.6-24.07,20.45,0,11.58,9.13,19.67,22.2,19.67,6.29,0,14.08-2.33,19.28-7.45v4.56a1.57,1.57,0,0,0,1.57,1.57h6.8a1.57,1.57,0,0,0,1.57-1.57V69.26C154.66,53.81,145.36,44.21,130.38,44.21Zm14.34,33.9v7.74c-2,7.6-10.64,11.58-18.18,11.58-7.93,0-13.47-4.41-13.47-10.72s6.55-11.06,15.22-11.06A60.31,60.31,0,0,1,144.72,78.11Z"/><path class="cls-1" d="M197.2,44.21c-8.4,0-15.86,3.36-20.38,8.89v-6a1.56,1.56,0,0,0-1.57-1.56h-6.8a1.56,1.56,0,0,0-1.57,1.56v56.73a1.57,1.57,0,0,0,1.57,1.57h6.8a1.57,1.57,0,0,0,1.57-1.57V72.11c0-10.9,8.38-18.51,20.38-18.51A1.56,1.56,0,0,0,198.76,52V45.78A1.56,1.56,0,0,0,197.2,44.21Z"/><path class="cls-1" d="M282.67,26.87H271.59a1.56,1.56,0,0,0-1.38.83L245.15,74.39,220.08,27.7a1.56,1.56,0,0,0-1.38-.83H207.62a1.57,1.57,0,0,0-1.57,1.57v75.38a1.57,1.57,0,0,0,1.57,1.57H218.7a1.57,1.57,0,0,0,1.57-1.57V56.4l23.49,43.78a1.64,1.64,0,0,0,2.77,0L270,56.4v47.42a1.57,1.57,0,0,0,1.57,1.57h11.08a1.57,1.57,0,0,0,1.57-1.57V28.44A1.57,1.57,0,0,0,282.67,26.87Z"/><path class="cls-1" d="M323.15,44.21c-16.75,0-29.87,13.65-29.87,31.08,0,17.62,13.5,31.42,30.75,31.42,8.91,0,19-3.9,24.08-9.27a1.58,1.58,0,0,0,0-2.17l-6.8-7a1.61,1.61,0,0,0-2.25,0c-3.13,3.23-9.63,5.67-15.12,5.67-8.1,0-14.29-5.09-16.2-13.11h42.76A1.56,1.56,0,0,0,352,79.24C352,57.63,341,44.21,323.15,44.21ZM307.91,69C310,61.65,316,57,323.59,57s12.83,4.35,14.49,12Z"/><path class="cls-2" d="M473.56,26.53H443.79a3.68,3.68,0,0,0-3.68,3.68V101a3.67,3.67,0,0,0,3.68,3.67h10.4a3.67,3.67,0,0,0,3.68-3.67V80h15.69c17.07,0,29.94-11.51,29.94-26.76S490.63,26.53,473.56,26.53ZM472.11,63H457.87V43.57h14.24c3.15,0,13.42.7,13.42,9.71S475.26,63,472.11,63ZM432.27,31.32a1.58,1.58,0,0,1,.8,1.37V71.21c0,10.05-3.58,18.72-9.63,24.88a33.71,33.71,0,0,1-24.44,9.8,36.25,36.25,0,0,1-4.59-.29,38.58,38.58,0,0,1-4.36-.82,32.25,32.25,0,0,0,17.58-11.1,35.14,35.14,0,0,0,7.45-20.33c0-.38.07-.77.09-1.16s0-.79,0-1.19V32.66a1.63,1.63,0,0,1,.21-.78,1.58,1.58,0,0,1,.55-.57l7.91-4.51Zm-47.75,71.56c-10.92-4.82-18.32-15.12-19.43-28.21-.1-1.13-.15-2.29-.15-3.46v-41a3.67,3.67,0,0,1,3.67-3.68H379a3.68,3.68,0,0,1,3.68,3.68V71c0,6.84,2.78,12.35,7.33,15.41a15.86,15.86,0,0,0,9,2.65,15.69,15.69,0,0,0,8.48-2.37c-5.34,9.65-14.17,12.66-18.27,14.67A23.07,23.07,0,0,1,384.52,102.88ZM436.68,10l-6,5.88,1.43,8.3a.53.53,0,0,1-.22.52.5.5,0,0,1-.55,0l-7.46-3.92-7.46,3.92a.5.5,0,0,1-.24.06.53.53,0,0,1-.53-.62l1.43-8.3L411,10a.55.55,0,0,1-.13-.55.53.53,0,0,1,.43-.36l8.33-1.21L423.36.3a.53.53,0,0,1,1,0L428,7.85l8.34,1.21a.53.53,0,0,1,.43.36A.55.55,0,0,1,436.68,10Z"/></g></g></svg>